<svg width="30" height="29" viewBox="0 0 30 29" fill="none" xmlns="http://www.w3.org/2000/svg">
<rect x="0.877441" y="3.05176e-05" width="28.368" height="28.368" rx="6.19894" fill="#D82D7E" fill-opacity="0.19"/>
<g clip-path="url(#clip0_268_347)">
<path d="M11.0568 21.9433C10.4379 21.9364 9.82485 21.8229 9.24453 21.6078C8.82076 21.4512 8.43735 21.2018 8.12234 20.8779C7.79759 20.5635 7.54785 20.18 7.39167 19.7559C7.17673 19.1756 7.06338 18.5626 7.05661 17.9438C7.00908 16.9151 6.99951 16.6066 6.99951 14C6.99951 11.3934 7.01002 11.0859 7.05614 10.0564C7.06373 9.4379 7.17722 8.82522 7.39167 8.24499C7.54861 7.82115 7.798 7.43758 8.12171 7.12217C8.43633 6.79772 8.81992 6.54821 9.24406 6.39213C9.82438 6.17701 10.4374 6.0635 11.0563 6.0566C12.0853 6.00954 12.3943 5.99997 14.9995 5.99997C17.6047 5.99997 17.9136 6.01048 18.943 6.0566C19.5617 6.06414 20.1746 6.17762 20.755 6.39213C21.1789 6.54841 21.5624 6.79783 21.8772 7.12201C22.2014 7.43687 22.451 7.82046 22.6074 8.24452C22.8225 8.82483 22.9361 9.43788 22.943 10.0568C22.9901 11.0862 22.9997 11.3945 22.9997 14.0003C22.9997 16.6061 22.9901 16.9143 22.943 17.9438C22.9356 18.5626 22.822 19.1755 22.6074 19.7559C22.445 20.1768 22.1963 20.559 21.8772 20.878C21.5582 21.1969 21.1759 21.4455 20.755 21.6078C20.1747 21.823 19.5616 21.9365 18.9427 21.9435C17.9142 21.9906 17.605 22.0001 14.9992 22.0001C12.3934 22.0001 12.0852 21.991 11.0566 21.9435" fill="url(#paint0_radial_268_347)"/>
<path d="M11.0568 21.9433C10.4379 21.9364 9.82485 21.8229 9.24453 21.6078C8.82076 21.4512 8.43735 21.2018 8.12234 20.8779C7.79759 20.5635 7.54785 20.18 7.39167 19.7559C7.17673 19.1756 7.06338 18.5626 7.05661 17.9438C7.00908 16.9151 6.99951 16.6066 6.99951 14C6.99951 11.3934 7.01002 11.0859 7.05614 10.0564C7.06373 9.4379 7.17722 8.82522 7.39167 8.24499C7.54861 7.82115 7.798 7.43758 8.12171 7.12217C8.43633 6.79772 8.81992 6.54821 9.24406 6.39213C9.82438 6.17701 10.4374 6.0635 11.0563 6.0566C12.0853 6.00954 12.3943 5.99997 14.9995 5.99997C17.6047 5.99997 17.9136 6.01048 18.943 6.0566C19.5617 6.06414 20.1746 6.17762 20.755 6.39213C21.1789 6.54841 21.5624 6.79783 21.8772 7.12201C22.2014 7.43687 22.451 7.82046 22.6074 8.24452C22.8225 8.82483 22.9361 9.43788 22.943 10.0568C22.9901 11.0862 22.9997 11.3945 22.9997 14.0003C22.9997 16.6061 22.9901 16.9143 22.943 17.9438C22.9356 18.5626 22.822 19.1755 22.6074 19.7559C22.445 20.1768 22.1963 20.559 21.8772 20.878C21.5582 21.1969 21.1759 21.4455 20.755 21.6078C20.1747 21.823 19.5616 21.9365 18.9427 21.9435C17.9142 21.9906 17.605 22.0001 14.9992 22.0001C12.3934 22.0001 12.0852 21.991 11.0566 21.9435" fill="url(#paint1_radial_268_347)"/>
<path d="M13.0352 14.034C13.0353 13.6421 13.1515 13.259 13.3693 12.9332C13.587 12.6074 13.8965 12.3535 14.2585 12.2036C14.6206 12.0536 15.019 12.0144 15.4033 12.0909C15.7877 12.1674 16.1407 12.3562 16.4178 12.6333C16.6948 12.9104 16.8835 13.2635 16.9599 13.6479C17.0363 14.0322 16.997 14.4306 16.847 14.7926C16.697 15.1546 16.443 15.4641 16.1171 15.6817C15.7912 15.8994 15.4081 16.0155 15.0163 16.0155C14.4908 16.0154 13.9869 15.8066 13.6154 15.435C13.2439 15.0634 13.0352 14.5594 13.0352 14.034ZM11.964 14.034C11.964 14.6377 12.143 15.2278 12.4784 15.7297C12.8138 16.2317 13.2905 16.6229 13.8482 16.8539C14.4059 17.0849 15.0197 17.1453 15.6117 17.0276C16.2038 16.9098 16.7477 16.6191 17.1745 16.1922C17.6014 15.7654 17.8921 15.2215 18.0099 14.6295C18.1276 14.0374 18.0672 13.4237 17.8362 12.8659C17.6051 12.3082 17.2139 11.8315 16.712 11.4961C16.2101 11.1608 15.6199 10.9818 15.0163 10.9818C14.6154 10.9817 14.2185 11.0607 13.8482 11.214C13.4779 11.3674 13.1414 11.5923 12.858 11.8757C12.5745 12.1591 12.3497 12.4956 12.1963 12.8659C12.0429 13.2362 11.964 13.6332 11.964 14.034ZM17.476 10.8608C17.476 11.0019 17.5177 11.1398 17.5961 11.2571C17.6744 11.3745 17.7857 11.4659 17.916 11.52C18.0464 11.574 18.1898 11.5882 18.3281 11.5607C18.4665 11.5333 18.5936 11.4654 18.6934 11.3657C18.7932 11.266 18.8612 11.1389 18.8888 11.0006C18.9164 10.8622 18.9023 10.7188 18.8484 10.5885C18.7944 10.4581 18.7031 10.3467 18.5858 10.2683C18.4685 10.1898 18.3307 10.1479 18.1896 10.1479C18.0005 10.148 17.8192 10.2231 17.6855 10.3568C17.5517 10.4904 17.4765 10.6717 17.4763 10.8608M12.6152 18.8724C12.2382 18.8683 11.8648 18.7993 11.5113 18.6685C11.2549 18.5697 11.0221 18.4183 10.8278 18.224C10.6334 18.0298 10.4819 17.797 10.383 17.5407C10.2521 17.1871 10.1832 16.8137 10.1791 16.4368C10.1502 15.8103 10.1446 15.6221 10.1446 14.0348C10.1446 12.4475 10.1509 12.2597 10.1791 11.6326C10.1837 11.2557 10.2526 10.8824 10.383 10.5287C10.4818 10.2723 10.6333 10.0394 10.8276 9.84503C11.022 9.65069 11.2549 9.49923 11.5113 9.40042C11.8648 9.26956 12.2382 9.20058 12.6152 9.1965C13.2417 9.16764 13.4299 9.16199 15.0166 9.16199C16.6032 9.16199 16.7916 9.16811 17.4188 9.19666C17.7957 9.20123 18.169 9.27019 18.5226 9.40058C18.7791 9.4994 19.012 9.65086 19.2063 9.84519C19.4007 10.0395 19.5521 10.2724 19.6509 10.5289C19.7818 10.8824 19.8508 11.2558 19.8549 11.6327C19.8837 12.2602 19.8894 12.4475 19.8894 14.0349C19.8894 15.6224 19.8836 15.81 19.8549 16.4371C19.8505 16.814 19.7815 17.1874 19.6509 17.541C19.552 17.7973 19.4005 18.0301 19.2062 18.2243C19.0118 18.4186 18.779 18.57 18.5226 18.6688C18.1691 18.7997 17.7957 18.8686 17.4188 18.8727C16.7923 18.9016 16.604 18.9072 15.0166 18.9072C13.4291 18.9072 13.2415 18.9014 12.6152 18.8727M12.5659 8.12622C12.0727 8.13592 11.5847 8.22927 11.1228 8.4023C10.7279 8.55498 10.3692 8.78851 10.0699 9.08789C9.77047 9.38727 9.53695 9.74591 9.38426 10.1408C9.21126 10.6028 9.11791 11.0907 9.10819 11.5839C9.07885 12.2177 9.07227 12.4203 9.07227 14.0346C9.07227 15.6489 9.07901 15.8514 9.10819 16.4853C9.11791 16.9785 9.21125 17.4665 9.38426 17.9284C9.53696 18.3233 9.77048 18.6819 10.0699 18.9813C10.3692 19.2807 10.7279 19.5142 11.1228 19.6669C11.5848 19.8399 12.0727 19.9332 12.5659 19.943C13.2 19.9719 13.4023 19.9789 15.0166 19.9789C16.6309 19.9789 16.8334 19.9722 17.4672 19.943C17.9604 19.9333 18.4484 19.8399 18.9104 19.6669C19.3053 19.5142 19.6639 19.2807 19.9633 18.9813C20.2627 18.6819 20.4962 18.3233 20.6489 17.9284C20.8221 17.4665 20.9155 16.9785 20.925 16.4853C20.9538 15.8511 20.9604 15.6489 20.9604 14.0346C20.9604 12.4203 20.9537 12.2178 20.925 11.5839C20.9153 11.0907 20.8219 10.6028 20.6489 10.1408C20.4962 9.74598 20.2627 9.3874 19.9635 9.08803C19.6642 8.78865 19.3056 8.55509 18.9109 8.4023C18.4489 8.22916 17.9609 8.13581 17.4677 8.12622C16.8338 8.0972 16.6313 8.0903 15.0174 8.0903C13.4034 8.0903 13.2004 8.09705 12.5662 8.12622" fill="white"/>
</g>
<defs>
<radialGradient id="paint0_radial_268_347" cx="0" cy="0" r="1" gradientUnits="userSpaceOnUse" gradientTransform="translate(8.03496 21.6495) scale(20.314)">
<stop offset="0.09" stop-color="#FA8F21"/>
<stop offset="0.78" stop-color="#D82D7E"/>
</radialGradient>
<radialGradient id="paint1_radial_268_347" cx="0" cy="0" r="1" gradientUnits="userSpaceOnUse" gradientTransform="translate(18.0822 21.1357) scale(17.8766)">
<stop offset="0.64" stop-color="#8C3AAA" stop-opacity="0"/>
<stop offset="1" stop-color="#8C3AAA"/>
</radialGradient>
<clipPath id="clip0_268_347">
<rect width="16" height="16" fill="white" transform="translate(7 6)"/>
</clipPath>
</defs>
</svg>
