<svg width="29" height="29" viewBox="0 0 29 29" fill="none" xmlns="http://www.w3.org/2000/svg">
<rect x="0.633789" y="0.000335693" width="28.3673" height="28.3673" rx="7.22566" fill="#67C15E" fill-opacity="0.19"/>
<g clip-path="url(#clip0_268_361)">
<path fill-rule="evenodd" clip-rule="evenodd" d="M13.9982 6.00009C9.58816 6.00009 6.0005 9.58842 6.0005 14.0001C5.99795 15.6851 6.53144 17.3273 7.52383 18.6891L6.52716 21.6614L9.60183 20.6788C10.9064 21.5435 12.4376 22.0032 14.0028 22.0001C18.4128 22.0001 22.0005 18.4114 22.0005 14.0001C22.0005 9.58876 18.4132 6.00009 14.0028 6.00009H13.9982ZM11.7648 10.0634C11.6095 9.69209 11.4922 9.67809 11.2572 9.66842C11.1679 9.66277 11.0786 9.65977 10.9892 9.65942C10.6832 9.65942 10.3635 9.74876 10.1708 9.94609C9.93583 10.1861 9.35283 10.7454 9.35283 11.8931C9.35283 13.0408 10.1895 14.1508 10.3025 14.3061C10.4202 14.4611 11.9342 16.8501 14.2848 17.8238C16.1232 18.5858 16.6688 18.5151 17.0872 18.4258C17.6985 18.2941 18.4648 17.8424 18.6575 17.2971C18.8505 16.7514 18.8505 16.2858 18.7942 16.1871C18.7375 16.0884 18.5822 16.0321 18.3475 15.9144C18.1122 15.7968 16.9695 15.2324 16.7532 15.1571C16.5418 15.0771 16.3398 15.1054 16.1798 15.3311C15.9542 15.6464 15.7332 15.9661 15.5545 16.1588C15.4135 16.3094 15.1828 16.3284 14.9902 16.2481C14.7315 16.1401 14.0075 15.8861 13.1142 15.0914C12.4228 14.4751 11.9528 13.7088 11.8165 13.4781C11.6798 13.2431 11.8025 13.1068 11.9105 12.9798C12.0282 12.8338 12.1408 12.7304 12.2585 12.5941C12.3758 12.4574 12.4418 12.3871 12.5172 12.2274C12.5972 12.0721 12.5405 11.9121 12.4838 11.7941C12.4278 11.6768 11.9575 10.5291 11.7648 10.0638V10.0634Z" fill="#67C15E"/>
</g>
<defs>
<clipPath id="clip0_268_361">
<rect width="16" height="16" fill="white" transform="translate(6 6)"/>
</clipPath>
</defs>
</svg>
