<svg width="29" height="29" viewBox="0 0 29 29" fill="none" xmlns="http://www.w3.org/2000/svg">
<rect x="0.51123" y="0.000335693" width="28.3673" height="28.3673" rx="6.61904" fill="#CD201F" fill-opacity="0.19"/>
<g clip-path="url(#clip0_268_364)">
<path d="M16.9351 14.2005C15.4298 13.4532 13.9885 12.7661 12.5151 12.0488V16.34C14.0655 15.557 15.6997 14.84 16.9415 14.2005H16.9351Z" fill="white"/>
<path d="M16.9351 14.2005C15.4298 13.4532 12.5151 12.0488 12.5151 12.0488L16.4011 14.4752C16.4011 14.4752 15.6933 14.84 16.9351 14.2005Z" fill="#E8E0E0"/>
<path d="M12.7994 19.6991C9.67276 19.6456 8.60485 19.5975 7.94845 19.4718C7.50436 19.3884 7.11844 19.203 6.83547 18.9342C6.61677 18.7308 6.44285 18.4203 6.30791 17.9897C6.19217 17.6309 6.14709 17.3323 6.08282 16.6031C5.98443 14.9574 5.96098 13.6119 6.08282 12.1085C6.18333 11.2783 6.23207 10.2927 6.89974 9.71774C7.21499 9.44864 7.58172 9.27546 7.99353 9.20387C8.63684 9.0904 11.3776 9.0007 14.2149 9.0007C17.0458 9.0007 19.7926 9.0904 20.4365 9.20387C20.951 9.29357 21.4334 9.56239 21.7167 9.90902C22.3259 10.7992 22.3366 11.9062 22.3984 12.7721C22.424 13.1846 22.424 15.5273 22.3984 15.9399C22.3021 17.3083 22.2248 17.7924 22.0061 18.2944C21.8708 18.6113 21.7554 18.7786 21.5556 18.9639C21.2422 19.2491 20.8427 19.4389 20.4103 19.5078C17.7046 19.6968 15.407 19.7378 12.7994 19.6991ZM16.9428 14.2005C15.4375 13.4532 13.9962 12.7602 12.5228 12.0429V16.3343C14.0732 15.5514 15.7077 14.834 16.9492 14.1945L16.9428 14.2005Z" fill="#CD201F"/>
</g>
<defs>
<clipPath id="clip0_268_364">
<rect width="16" height="11" fill="white" transform="translate(6 9)"/>
</clipPath>
</defs>
</svg>
